<?xml version="1.0" encoding="utf-8"?><svg version="1.1" id="Layer_1" xmlns="http://www.w3.org/2000/svg" xmlns:xlink="http://www.w3.org/1999/xlink" x="0px" y="0px"	 viewBox="0 0 1190 842" style="enable-background:new 0 0 1190 842;" xml:space="preserve"><style type="text/css">	.st0{opacity:0.08;fill:#2cbfaa;}</style><g>	<path class="st0" d="M587.5,606h-4c-10.2,0-18.5,8.3-18.5,18.5v4c0,10.2,8.3,18.5,18.5,18.5h4c10.2,0,18.5-8.3,18.5-18.5v-4		C606,614.3,597.8,606,587.5,606z M585.5,645L585.5,645c-10.2,0-18.5-8.3-18.5-18.5l0,0c0-10.2,8.3-18.5,18.5-18.5l0,0		c10.2,0,18.5,8.3,18.5,18.5l0,0C604,636.7,595.8,645,585.5,645z"/>	<path class="st0" d="M622.5,725h4c10.2,0,18.5-8.3,18.5-18.5v-4c0-10.2-8.3-18.5-18.5-18.5h-4c-10.2,0-18.5,8.3-18.5,18.5v4		C604,716.7,612.3,725,622.5,725z M624.5,686L624.5,686c10.2,0,18.5,8.3,18.5,18.5l0,0c0,10.2-8.3,18.5-18.5,18.5l0,0		c-10.2,0-18.5-8.3-18.5-18.5l0,0C606,694.3,614.3,686,624.5,686z"/>	<path class="st0" d="M193.6,803h4c10.2,0,18.5-8.3,18.5-18.5v-4c0-10.2-8.3-18.5-18.5-18.5h-4c-10.2,0-18.5,8.3-18.5,18.5v4		C175.1,794.7,183.3,803,193.6,803z M195.6,764L195.6,764c10.2,0,18.5,8.3,18.5,18.5l0,0c0,10.2-8.3,18.5-18.5,18.5l0,0		c-10.2,0-18.5-8.3-18.5-18.5l0,0C177.1,772.3,185.3,764,195.6,764z"/>	<path class="st0" d="M509.5,684h-41c-10.2,0-18.5-8.3-18.5-18.5v-2c0-10.2-8.3-18.5-18.5-18.5h-4c-10.2,0-18.5,8.3-18.5,18.5v2		c0,10.2-8.3,18.5-18.5,18.5h-2c-10.2,0-18.5,8.3-18.5,18.5v2c0,10.2-8.3,18.5-18.5,18.5h-41c-10.2,0-18.5,8.3-18.5,18.5v41		c0,10.2-8.3,18.5-18.5,18.5h-2c-10.2,0-18.5,8.3-18.5,18.5v4c0,10.2,8.3,18.5,18.5,18.5h4c10.2,0,18.5-8.3,18.5-18.5v-2		c0-10.2,8.3-18.5,18.5-18.5h39c10.2,0,18.5,8.3,18.5,18.5v2c0,10.2,8.3,18.5,18.5,18.5h4c10.2,0,18.5-8.3,18.5-18.5v-2		c0-10.2,8.3-18.5,18.5-18.5h2c10.2,0,18.5-8.3,18.5-18.5v-2c0-10.2,8.3-18.5,18.5-18.5h39c10.2,0,18.5,8.3,18.5,18.5l0,0		c0,10.2-8.3,18.5-18.5,18.5h-2c-10.2,0-18.5,8.3-18.5,18.5v4c0,10.2,8.3,18.5,18.5,18.5h4c10.2,0,18.5-8.3,18.5-18.5v-2		c0-10.2,8.3-18.5,18.5-18.5h2c10.2,0,18.5-8.3,18.5-18.5v-4c0-10.2-8.3-18.5-18.5-18.5h-2c-10.2,0-18.5-8.3-18.5-18.5v-41		C528,692.3,519.8,684,509.5,684z M429.5,647L429.5,647c10.2,0,18.5,8.3,18.5,18.5l0,0c0,10.2-8.3,18.5-18.5,18.5l0,0		c-10.2,0-18.5-8.3-18.5-18.5l0,0C411.1,655.3,419.3,647,429.5,647z M390.6,801L390.6,801c-10.2,0-18.5-8.3-18.5-18.5v-39		c0-10.2,8.3-18.5,18.5-18.5h2c10.2,0,18.5-8.3,18.5-18.5v-2c0-10.2,8.3-18.5,18.5-18.5l0,0c10.2,0,18.5,8.3,18.5,18.5v39		c0,10.2-8.3,18.5-18.5,18.5h-2c-10.2,0-18.5,8.3-18.5,18.5v2C409.1,792.7,400.8,801,390.6,801z M390.6,686L390.6,686		c10.2,0,18.5,8.3,18.5,18.5l0,0c0,10.2-8.3,18.5-18.5,18.5l0,0c-10.2,0-18.5-8.3-18.5-18.5l0,0C372.1,694.3,380.3,686,390.6,686z		 M273.6,840L273.6,840c-10.2,0-18.5-8.3-18.5-18.5l0,0c0-10.2,8.3-18.5,18.5-18.5l0,0c10.2,0,18.5,8.3,18.5,18.5l0,0		C292.1,831.7,283.8,840,273.6,840z M294.1,782.5v-39c0-10.2,8.3-18.5,18.5-18.5h39c10.2,0,18.5,8.3,18.5,18.5v39		c0,10.2-8.3,18.5-18.5,18.5h-39C302.3,801,294.1,792.7,294.1,782.5z M390.6,840L390.6,840c-10.2,0-18.5-8.3-18.5-18.5l0,0		c0-10.2,8.3-18.5,18.5-18.5l0,0c10.2,0,18.5,8.3,18.5,18.5l0,0C409.1,831.7,400.8,840,390.6,840z M429.5,801L429.5,801		c-10.2,0-18.5-8.3-18.5-18.5l0,0c0-10.2,8.3-18.5,18.5-18.5l0,0c10.2,0,18.5,8.3,18.5,18.5l0,0C448,792.7,439.8,801,429.5,801z		 M450,743.5v-39c0-10.2,8.3-18.5,18.5-18.5h39c10.2,0,18.5,8.3,18.5,18.5v39c0,10.2-8.3,18.5-18.5,18.5h-39		C458.3,762,450,753.7,450,743.5z M507.5,840L507.5,840c-10.2,0-18.5-8.3-18.5-18.5l0,0c0-10.2,8.3-18.5,18.5-18.5l0,0		c10.2,0,18.5,8.3,18.5,18.5l0,0C526,831.7,517.8,840,507.5,840z M565,782.5L565,782.5c0,10.2-8.3,18.5-18.5,18.5l0,0		c-10.2,0-18.5-8.3-18.5-18.5l0,0c0-10.2,8.3-18.5,18.5-18.5l0,0C556.8,764,565,772.3,565,782.5z"/>	<path class="st0" d="M1016.5,567h-43c-10.2,0-18.5,8.3-18.5,18.5v41c0,10.2-8.3,18.5-18.5,18.5h-2c-10.2,0-18.5,8.3-18.5,18.5v2		c0,10.2-8.3,18.5-18.5,18.5l0,0c-10.2,0-18.5-8.3-18.5-18.5v-39c0-10.2,8.3-18.5,18.5-18.5h2c10.2,0,18.5-8.3,18.5-18.5v-4		c0-10.2-8.3-18.5-18.5-18.5h-4c-10.2,0-18.5,8.3-18.5,18.5v2c0,10.2-8.3,18.5-18.5,18.5h-41c-10.2,0-18.5,8.3-18.5,18.5v41		c0,10.2-8.3,18.5-18.5,18.5l0,0c-10.2,0-18.5-8.3-18.5-18.5v-2c0-10.2-8.3-18.5-18.5-18.5h-2c-10.2,0-18.5-8.3-18.5-18.5v-41		c0-10.2-8.3-18.5-18.5-18.5h-43c-10.2,0-18.5,8.3-18.5,18.5v43c0,10.2,8.3,18.5,18.5,18.5h41c10.2,0,18.5,8.3,18.5,18.5v2		c0,10.2,8.3,18.5,18.5,18.5h2c10.2,0,18.5,8.3,18.5,18.5l0,0c0,10.2-8.3,18.5-18.5,18.5h-41c-10.2,0-18.5,8.3-18.5,18.5v41		c0,10.2-8.3,18.5-18.5,18.5l0,0c-10.2,0-18.5-8.3-18.5-18.5v-2c0-10.2-8.3-18.5-18.5-18.5h-4c-10.2,0-18.5,8.3-18.5,18.5v4		c0,10.2,8.3,18.5,18.5,18.5h2c10.2,0,18.5,8.3,18.5,18.5v2c0,10.2,8.3,18.5,18.5,18.5h4c10.2,0,18.5-8.3,18.5-18.5v-2		c0-10.2,8.3-18.5,18.5-18.5h39c10.2,0,18.5,8.3,18.5,18.5v2c0,10.2,8.3,18.5,18.5,18.5h4c10.2,0,18.5-8.3,18.5-18.5v-2		c0-10.2,8.3-18.5,18.5-18.5h41c10.2,0,18.5-8.3,18.5-18.5v-41c0-10.2,8.3-18.5,18.5-18.5h2c10.2,0,18.5-8.3,18.5-18.5v-2		c0-10.2,8.3-18.5,18.5-18.5h2c10.2,0,18.5-8.3,18.5-18.5v-2c0-10.2,8.3-18.5,18.5-18.5h39c10.2,0,18.5,8.3,18.5,18.5v2		c0,10.2,8.3,18.5,18.5,18.5h4c10.2,0,18.5-8.3,18.5-18.5v-4c0-10.2-8.3-18.5-18.5-18.5h-2c-10.2,0-18.5-8.3-18.5-18.5v-41		C1035,575.3,1026.7,567,1016.5,567z M897.5,569L897.5,569c10.2,0,18.5,8.3,18.5,18.5l0,0c0,10.2-8.3,18.5-18.5,18.5l0,0		c-10.2,0-18.5-8.3-18.5-18.5l0,0C879,577.3,887.3,569,897.5,569z M819.5,608h39c10.2,0,18.5,8.3,18.5,18.5v39		c0,10.2-8.3,18.5-18.5,18.5h-39c-10.2,0-18.5-8.3-18.5-18.5v-39C801,616.3,809.3,608,819.5,608z M877,704.5L877,704.5		c0,10.2-8.3,18.5-18.5,18.5h-39c-10.2,0-18.5-8.3-18.5-18.5l0,0c0-10.2,8.3-18.5,18.5-18.5h39C868.7,686,877,694.3,877,704.5z		 M645,626.5v-39c0-10.2,8.3-18.5,18.5-18.5h39c10.2,0,18.5,8.3,18.5,18.5v39c0,10.2-8.3,18.5-18.5,18.5h-39		C653.3,645,645,636.7,645,626.5z M723,665.5L723,665.5c0-10.2,8.3-18.5,18.5-18.5l0,0c10.2,0,18.5,8.3,18.5,18.5l0,0		c0,10.2-8.3,18.5-18.5,18.5l0,0C731.3,684,723,675.7,723,665.5z M780.5,686L780.5,686c10.2,0,18.5,8.3,18.5,18.5l0,0		c0,10.2-8.3,18.5-18.5,18.5l0,0c-10.2,0-18.5-8.3-18.5-18.5l0,0C762,694.3,770.3,686,780.5,686z M799,743.5v39		c0,10.2-8.3,18.5-18.5,18.5l0,0c-10.2,0-18.5-8.3-18.5-18.5v-39c0-10.2,8.3-18.5,18.5-18.5l0,0C790.7,725,799,733.3,799,743.5z		 M606,782.5L606,782.5c0-10.2,8.3-18.5,18.5-18.5l0,0c10.2,0,18.5,8.3,18.5,18.5l0,0c0,10.2-8.3,18.5-18.5,18.5l0,0		C614.3,801,606,792.7,606,782.5z M663.5,840L663.5,840c-10.2,0-18.5-8.3-18.5-18.5l0,0c0-10.2,8.3-18.5,18.5-18.5l0,0		c10.2,0,18.5,8.3,18.5,18.5l0,0C682,831.7,673.8,840,663.5,840z M684,782.5v-39c0-10.2,8.3-18.5,18.5-18.5h39		c10.2,0,18.5,8.3,18.5,18.5v39c0,10.2-8.3,18.5-18.5,18.5h-39C692.3,801,684,792.7,684,782.5z M780.5,840L780.5,840		c-10.2,0-18.5-8.3-18.5-18.5l0,0c0-10.2,8.3-18.5,18.5-18.5l0,0c10.2,0,18.5,8.3,18.5,18.5l0,0C799,831.7,790.7,840,780.5,840z		 M858.5,801h-39c-10.2,0-18.5-8.3-18.5-18.5v-39c0-10.2,8.3-18.5,18.5-18.5h39c10.2,0,18.5,8.3,18.5,18.5v39		C877,792.7,868.7,801,858.5,801z M897.5,723L897.5,723c-10.2,0-18.5-8.3-18.5-18.5l0,0c0-10.2,8.3-18.5,18.5-18.5l0,0		c10.2,0,18.5,8.3,18.5,18.5l0,0C916,714.7,907.7,723,897.5,723z M936.5,684L936.5,684c-10.2,0-18.5-8.3-18.5-18.5l0,0		c0-10.2,8.3-18.5,18.5-18.5l0,0c10.2,0,18.5,8.3,18.5,18.5l0,0C955,675.7,946.7,684,936.5,684z M957,626.5v-39		c0-10.2,8.3-18.5,18.5-18.5h39c10.2,0,18.5,8.3,18.5,18.5v39c0,10.2-8.3,18.5-18.5,18.5h-39C965.3,645,957,636.7,957,626.5z		 M1072,665.5L1072,665.5c0,10.2-8.3,18.5-18.5,18.5l0,0c-10.2,0-18.5-8.3-18.5-18.5l0,0c0-10.2,8.3-18.5,18.5-18.5l0,0		C1063.7,647,1072,655.3,1072,665.5z"/>	<path class="st0" d="M938.5,489h-4c-10.2,0-18.5,8.3-18.5,18.5v4c0,10.2,8.3,18.5,18.5,18.5h4c10.2,0,18.5-8.3,18.5-18.5v-4		C957,497.3,948.7,489,938.5,489z M936.5,528L936.5,528c-10.2,0-18.5-8.3-18.5-18.5l0,0c0-10.2,8.3-18.5,18.5-18.5l0,0		c10.2,0,18.5,8.3,18.5,18.5l0,0C955,519.7,946.7,528,936.5,528z"/>	<path class="st0" d="M782.5,528h-4c-10.2,0-18.5,8.3-18.5,18.5v4c0,10.2,8.3,18.5,18.5,18.5h4c10.2,0,18.5-8.3,18.5-18.5v-4		C801,536.3,792.7,528,782.5,528z M780.5,567L780.5,567c-10.2,0-18.5-8.3-18.5-18.5l0,0c0-10.2,8.3-18.5,18.5-18.5l0,0		c10.2,0,18.5,8.3,18.5,18.5l0,0C799,558.7,790.7,567,780.5,567z"/>	<path class="st0" d="M1113,587.5v-2c0-10.2-8.3-18.5-18.5-18.5h-4c-10.2,0-18.5,8.3-18.5,18.5v4c0,10.2,8.3,18.5,18.5,18.5h2		c10.2,0,18.5,8.3,18.5,18.5v41c0,10.2,8.3,18.5,18.5,18.5h43c10.2,0,18.5-8.3,18.5-18.5v-43c0-10.2-8.3-18.5-18.5-18.5h-41		C1121.3,606,1113,597.7,1113,587.5z M1074,587.5L1074,587.5c0-10.2,8.3-18.5,18.5-18.5l0,0c10.2,0,18.5,8.3,18.5,18.5l0,0		c0,10.2-8.3,18.5-18.5,18.5l0,0C1082.3,606,1074,597.7,1074,587.5z M1170.5,684h-39c-10.2,0-18.5-8.3-18.5-18.5v-39		c0-10.2,8.3-18.5,18.5-18.5h39c10.2,0,18.5,8.3,18.5,18.5v39C1189,675.7,1180.7,684,1170.5,684z"/>	<path class="st0" d="M1133.5,450h-43c-10.2,0-18.5,8.3-18.5,18.5v43c0,10.2,8.3,18.5,18.5,18.5h43c10.2,0,18.5-8.3,18.5-18.5v-43		C1152,458.3,1143.7,450,1133.5,450z M1131.5,528h-39c-10.2,0-18.5-8.3-18.5-18.5v-39c0-10.2,8.3-18.5,18.5-18.5h39		c10.2,0,18.5,8.3,18.5,18.5v39C1150,519.7,1141.7,528,1131.5,528z"/>	<path class="st0" d="M1129.5,803h43c10.2,0,18.5-8.3,18.5-18.5v-43c0-10.2-8.3-18.5-18.5-18.5h-43c-10.2,0-18.5,8.3-18.5,18.5v43		C1111,794.7,1119.3,803,1129.5,803z M1131.5,725h39c10.2,0,18.5,8.3,18.5,18.5v39c0,10.2-8.3,18.5-18.5,18.5h-39		c-10.2,0-18.5-8.3-18.5-18.5v-39C1113,733.3,1121.3,725,1131.5,725z"/>	<path class="st0" d="M975.5,801L975.5,801c-10.2,0-18.5-8.3-18.5-18.5v-2c0-10.2-8.3-18.5-18.5-18.5h-4c-10.2,0-18.5,8.3-18.5,18.5		v4c0,10.2,8.3,18.5,18.5,18.5h2c10.2,0,18.5,8.3,18.5,18.5v2c0,10.2,8.3,18.5,18.5,18.5h4c10.2,0,18.5-8.3,18.5-18.5v-2		c0-10.2,8.3-18.5,18.5-18.5h41c10.2,0,18.5-8.3,18.5-18.5v-43c0-10.2-8.3-18.5-18.5-18.5h-43c-10.2,0-18.5,8.3-18.5,18.5v41		C994,792.7,985.7,801,975.5,801z M918,782.5L918,782.5c0-10.2,8.3-18.5,18.5-18.5l0,0c10.2,0,18.5,8.3,18.5,18.5l0,0		c0,10.2-8.3,18.5-18.5,18.5l0,0C926.3,801,918,792.7,918,782.5z M975.5,840L975.5,840c-10.2,0-18.5-8.3-18.5-18.5l0,0		c0-10.2,8.3-18.5,18.5-18.5l0,0c10.2,0,18.5,8.3,18.5,18.5l0,0C994,831.7,985.7,840,975.5,840z M1014.5,725h39		c10.2,0,18.5,8.3,18.5,18.5v39c0,10.2-8.3,18.5-18.5,18.5h-39c-10.2,0-18.5-8.3-18.5-18.5v-39C996,733.3,1004.3,725,1014.5,725z"/>	<path class="st0" d="M236.6,684h-4c-10.2,0-18.5,8.3-18.5,18.5v4c0,10.2,8.3,18.5,18.5,18.5h4c10.2,0,18.5-8.3,18.5-18.5v-4		C255.1,692.3,246.8,684,236.6,684z M234.6,723L234.6,723c-10.2,0-18.5-8.3-18.5-18.5l0,0c0-10.2,8.3-18.5,18.5-18.5l0,0		c10.2,0,18.5,8.3,18.5,18.5l0,0C253.1,714.7,244.8,723,234.6,723z"/></g></svg>